<svg xmlns="http://www.w3.org/2000/svg" viewBox="0 0 48 48"><defs><style>.cls-1{fill:#595959;}</style></defs><title>action-settings</title><g id="Layer_2" data-name="Layer 2"><g id="action-settings"><path class="cls-1" d="M45,18a2.888,2.888,0,0,1,3,3v6a2.964,2.964,0,0,1-.843,2.109A2.838,2.838,0,0,1,45,30H42.375q-.28.752-.562,1.406t-.563,1.313l1.875,1.875a3.057,3.057,0,0,1,0,4.218l-4.312,4.313a2.807,2.807,0,0,1-2.063.844,2.918,2.918,0,0,1-2.156-.844l-1.875-1.969a12.838,12.838,0,0,1-1.312.656q-.657.282-1.407.563V45a2.966,2.966,0,0,1-.843,2.109A2.842,2.842,0,0,1,27,48H21a2.836,2.836,0,0,1-2.156-.891A2.962,2.962,0,0,1,18,45V42.375q-.751-.28-1.406-.563a12.65,12.65,0,0,1-1.313-.656l-1.875,1.969a2.917,2.917,0,0,1-2.156.844,2.8,2.8,0,0,1-2.062-.844L4.875,38.812a3.057,3.057,0,0,1,0-4.218L6.75,32.719q-.282-.656-.609-1.313A6.721,6.721,0,0,1,5.625,30H3a2.833,2.833,0,0,1-2.156-.891A2.961,2.961,0,0,1,0,27V21a2.889,2.889,0,0,1,3-3H5.625a6.783,6.783,0,0,1,.516-1.406q.327-.656.609-1.313L4.875,13.406a3.123,3.123,0,0,1-.844-2.156,2.8,2.8,0,0,1,.844-2.062L9.188,4.875a2.8,2.8,0,0,1,2.062-.844,2.917,2.917,0,0,1,2.156.844L15.281,6.75q.655-.282,1.313-.609A6.835,6.835,0,0,1,18,5.625V3a2.889,2.889,0,0,1,3-3h6a2.888,2.888,0,0,1,3,3V5.625a6.909,6.909,0,0,1,1.407.516c.436.219.875.421,1.312.609l1.875-1.875a2.918,2.918,0,0,1,2.156-.844,2.807,2.807,0,0,1,2.063.844l4.312,4.313a2.8,2.8,0,0,1,.844,2.062,3.123,3.123,0,0,1-.844,2.156L41.25,15.281q.282.657.563,1.313T42.375,18Zm0,3H40.125l-.656-2.062c-.126-.376-.266-.765-.422-1.172s-.328-.8-.515-1.172L37.5,14.719l1.594-1.594,1.875-1.875L36.75,7.031,34.875,8.906l-1.593,1.5-1.969-.937c-.375-.188-.75-.359-1.125-.516s-.75-.3-1.125-.422L27,7.781V3H21V7.781l-2.062.75q-.564.189-1.172.422c-.408.157-.8.328-1.172.516l-1.875.937-1.594-1.5L11.25,7.031,7.031,11.25l1.875,1.875,1.5,1.594-.937,1.875c-.188.375-.361.766-.516,1.172s-.3.8-.422,1.172L7.781,21H3v6H7.781l.75,2.062c.125.376.266.75.422,1.126s.328.75.516,1.124l.937,1.969-1.5,1.594L7.031,36.75l4.219,4.219,1.875-1.875L14.719,37.5l1.875,1.031a12.573,12.573,0,0,0,1.172.516q.609.234,1.172.422L21,40.125V45h6V40.125l2.063-.656q.563-.187,1.125-.422c.375-.155.75-.328,1.125-.516L33.282,37.5l1.593,1.594,1.875,1.875,4.219-4.219-1.875-1.875L37.5,33.281l1.032-1.969c.187-.374.359-.75.515-1.124s.3-.75.422-1.126L40.125,27H45ZM24,15a8.963,8.963,0,0,1,9,9,8.963,8.963,0,0,1-9,9,8.963,8.963,0,0,1-9-9,8.963,8.963,0,0,1,9-9Zm0,15a6.083,6.083,0,0,0,6-6,6.083,6.083,0,0,0-6-6,6.083,6.083,0,0,0-6,6,6.083,6.083,0,0,0,6,6Z"/></g></g></svg>