<svg xmlns="http://www.w3.org/2000/svg" viewBox="0 0 48 42"><defs><style>.cls-1{fill:#595959;}</style></defs><title>factory</title><g id="Layer_2" data-name="Layer 2"><g id="factory"><path class="cls-1" d="M.75,3C.249,3,0,2.875,0,2.625V.375C0,.126.249,0,.75,0h10.5c.5,0,.75.126.75.375v2.25c0,.25-.252.375-.75.375ZM46.5,21a1.511,1.511,0,0,1,1.031.422A1.391,1.391,0,0,1,48,22.5V42H39V30.75a.664.664,0,0,0-.75-.75h-4.5a.663.663,0,0,0-.75.75V42H0V7.5A1.325,1.325,0,0,1,1.5,6h9a1.511,1.511,0,0,1,1.031.422A1.391,1.391,0,0,1,12,7.5V21ZM45,24H9V9H3V39H30V30.75A3.683,3.683,0,0,1,33.75,27h4.5A3.683,3.683,0,0,1,42,30.75V39h3ZM9,27.75A.663.663,0,0,1,9.75,27h4.5a.664.664,0,0,1,.75.75v4.5a.663.663,0,0,1-.75.75H9.75A.662.662,0,0,1,9,32.25ZM18.75,18a.662.662,0,0,1-.75-.75V10.312a.663.663,0,0,1,.75-.75.862.862,0,0,1,.375.094l11.531,6.938a.7.7,0,0,1,.328.844.664.664,0,0,1-.7.562Zm0,15a.662.662,0,0,1-.75-.75v-4.5a.663.663,0,0,1,.75-.75h4.5a.664.664,0,0,1,.75.75v4.5a.663.663,0,0,1-.75.75Zm15-15a.662.662,0,0,1-.75-.75V10.312a.663.663,0,0,1,.75-.75.862.862,0,0,1,.375.094l11.531,6.938a.7.7,0,0,1,.328.844.664.664,0,0,1-.7.562Z"/></g></g></svg>